<svg xmlns="http://www.w3.org/2000/svg" xmlns:xlink="http://www.w3.org/1999/xlink" width="876" zoomAndPan="magnify" viewBox="0 0 657 155.999997" height="208" preserveAspectRatio="xMidYMid meet" version="1.0"><defs><g/><clipPath id="a2cc3041eb"><path d="M 122.484375 20.003906 L 242.484375 20.003906 L 242.484375 90 L 122.484375 90 Z M 122.484375 20.003906 " clip-rule="nonzero"/></clipPath><clipPath id="5a4498f5d2"><path d="M 127 72 L 239 72 L 239 148.253906 L 127 148.253906 Z M 127 72 " clip-rule="nonzero"/></clipPath></defs><g clip-path="url(#a2cc3041eb)"><path fill="#004aad" d="M 228.441406 35.203125 C 223.972656 31.90625 219.136719 29.082031 214.066406 26.820312 C 209.105469 24.605469 203.882812 22.90625 198.546875 21.773438 C 193.273438 20.652344 187.859375 20.074219 182.460938 20.0625 L 182.257812 20.0625 C 176.921875 20.0625 171.574219 20.609375 166.363281 21.6875 C 161.023438 22.792969 155.792969 24.464844 150.820312 26.652344 C 145.738281 28.890625 140.886719 31.6875 136.402344 34.960938 C 131.820312 38.308594 127.574219 42.1875 123.785156 46.496094 L 122.484375 47.796875 L 122.667969 49.761719 C 122.679688 49.875 122.691406 49.988281 122.703125 50.105469 C 123.960938 53.746094 125.324219 57.332031 126.777344 60.84375 C 130.878906 70.742188 135.777344 80.207031 141.410156 89.128906 C 138.851562 83.386719 136.710938 77.378906 135.042969 71.257812 C 133.25 64.671875 131.960938 57.792969 131.207031 50.792969 C 134.300781 47.4375 137.710938 44.394531 141.347656 41.738281 C 145.347656 38.816406 149.671875 36.324219 154.199219 34.332031 C 158.636719 32.378906 163.300781 30.890625 168.066406 29.902344 C 172.71875 28.9375 177.492188 28.449219 182.253906 28.449219 L 182.4375 28.449219 C 187.261719 28.464844 192.09375 28.976562 196.804688 29.976562 C 201.5625 30.988281 206.21875 32.503906 210.644531 34.480469 C 215.164062 36.496094 219.476562 39.011719 223.457031 41.953125 C 227.210938 44.726562 230.714844 47.910156 233.878906 51.421875 C 233.03125 58.382812 231.652344 65.222656 229.777344 71.757812 C 228.316406 76.867188 226.519531 81.890625 224.429688 86.742188 C 229.429688 78.710938 233.84375 70.246094 237.617188 61.429688 C 239.40625 57.253906 241.058594 52.972656 242.566406 48.617188 L 241.089844 46.910156 C 237.296875 42.539062 233.042969 38.601562 228.441406 35.203125 " fill-opacity="1" fill-rule="nonzero"/></g><g clip-path="url(#5a4498f5d2)"><path fill="#004aad" d="M 217.628906 104.921875 C 208.527344 116.445312 199.742188 124.675781 193.972656 129.550781 C 190.414062 132.558594 187.542969 134.691406 185.6875 136 C 184.195312 137.097656 182.925781 137.96875 181.933594 138.617188 C 181.890625 138.589844 181.847656 138.558594 181.800781 138.53125 L 181.660156 138.617188 L 179.980469 137.542969 C 179.808594 137.433594 175.691406 134.789062 169.464844 129.386719 C 163.761719 124.433594 155.082031 116.089844 146.128906 104.445312 C 138.878906 95.015625 132.511719 84.851562 127.125 74.101562 C 128.988281 80.816406 131.386719 87.394531 134.253906 93.667969 C 139.238281 104.566406 145.714844 114.746094 153.503906 123.925781 C 160.4375 132.097656 167.160156 137.957031 171.578125 141.429688 C 176.425781 145.242188 179.664062 147.128906 179.800781 147.207031 L 181.871094 148.402344 L 183.953125 147.234375 C 184.089844 147.15625 187.347656 145.316406 192.253906 141.558594 C 196.71875 138.140625 203.519531 132.367188 210.566406 124.28125 C 218.480469 115.199219 225.097656 105.097656 230.234375 94.261719 C 233.28125 87.828125 235.835938 81.0625 237.820312 74.148438 C 238.011719 73.484375 238.199219 72.820312 238.378906 72.148438 C 232.566406 83.824219 225.613281 94.8125 217.628906 104.921875 " fill-opacity="1" fill-rule="nonzero"/></g><path fill="#f61500" d="M 181.972656 82.632812 C 177.308594 82.601562 173.578125 78.910156 173.601562 74.339844 C 173.617188 69.785156 177.417969 66.085938 182.050781 66.121094 C 186.59375 66.144531 190.140625 69.777344 190.148438 74.40625 C 190.148438 78.976562 186.484375 82.667969 181.972656 82.632812 Z M 247.960938 69.363281 C 246.429688 67.753906 244.753906 66.257812 243.007812 64.886719 C 222.246094 48.472656 198.640625 41.5 172.296875 43.875 C 153.203125 45.601562 136.046875 52.359375 121.039062 64.378906 C 119.566406 65.554688 118.144531 66.824219 116.875 68.21875 C 114.800781 70.480469 114.953125 73.195312 117.375 75 C 124.476562 80.246094 131.636719 85.425781 138.832031 90.539062 C 140.246094 91.546875 141.902344 92.234375 143.511719 92.894531 C 144.636719 93.359375 145.890625 93.0625 146.117188 91.800781 C 146.253906 91.039062 145.738281 89.847656 145.121094 89.304688 C 139.21875 84.089844 133.40625 79.199219 128.113281 73.324219 C 137.746094 65.621094 148.277344 60.535156 159.746094 57.589844 C 158.332031 60.890625 156.511719 63.972656 155.71875 67.304688 C 154.914062 70.714844 154.589844 74.433594 155.015625 77.886719 C 155.4375 81.28125 156.605469 84.792969 158.308594 87.746094 C 160.042969 90.777344 162.53125 93.5625 165.222656 95.804688 C 174.550781 103.601562 188.847656 103.515625 198.613281 95.90625 C 203.761719 91.894531 207.113281 86.695312 208.5 80.339844 C 210.277344 72.207031 208.550781 64.714844 203.414062 57.480469 C 216.203125 60.914062 227.148438 66.578125 237.160156 74.832031 C 238.53125 75.957031 217.109375 89.914062 218.207031 91.945312 C 219.234375 93.824219 220.882812 92.511719 222.109375 91.929688 C 231.082031 87.613281 239.402344 82.226562 247.375 76.304688 C 250.144531 74.253906 250.355469 71.875 247.960938 69.363281 " fill-opacity="1" fill-rule="nonzero"/><g fill="#f2eddb" fill-opacity="1"><g transform="translate(253.449572, 91.834761)"><g><path d="M 25.640625 0.875 C 17.722656 0.875 11.613281 -1.132812 7.3125 -5.15625 C 3.019531 -9.175781 0.875 -15.609375 0.875 -24.453125 C 0.875 -41.328125 9.085938 -49.765625 25.515625 -49.765625 C 29.492188 -49.765625 33.191406 -49.28125 36.609375 -48.3125 C 40.023438 -47.351562 42.566406 -46.289062 44.234375 -45.125 L 44.234375 -29.40625 L 29.15625 -29.40625 L 29.15625 -33.9375 C 29.15625 -35.53125 28.796875 -36.703125 28.078125 -37.453125 C 27.367188 -38.210938 26.304688 -38.59375 24.890625 -38.59375 C 23.460938 -38.59375 22.390625 -38.210938 21.671875 -37.453125 C 20.960938 -36.703125 20.609375 -35.53125 20.609375 -33.9375 L 20.609375 -14.953125 C 20.609375 -13.359375 20.960938 -12.1875 21.671875 -11.4375 C 22.390625 -10.6875 23.460938 -10.3125 24.890625 -10.3125 C 26.304688 -10.3125 27.367188 -10.6875 28.078125 -11.4375 C 28.796875 -12.1875 29.15625 -13.359375 29.15625 -14.953125 L 29.15625 -20.046875 L 44.234375 -20.046875 L 44.234375 -3.765625 C 42.523438 -2.597656 39.984375 -1.53125 36.609375 -0.5625 C 33.234375 0.394531 29.578125 0.875 25.640625 0.875 Z M 25.640625 0.875 "/></g></g></g><g fill="#f2eddb" fill-opacity="1"><g transform="translate(301.456779, 91.834761)"><g><path d="M 42.484375 -10.3125 L 42.484375 0 L 25.265625 0 L 25.265625 -4.90625 C 22.242188 -1.050781 18.472656 0.875 13.953125 0.875 C 10.472656 0.875 7.863281 -0.210938 6.125 -2.390625 C 4.382812 -4.566406 3.515625 -7.5625 3.515625 -11.375 L 3.515625 -24.640625 L 0.75 -24.640625 L 0.75 -34.9375 L 17.96875 -34.9375 L 17.96875 -14.328125 C 17.96875 -12.941406 18.269531 -11.925781 18.875 -11.28125 C 19.488281 -10.632812 20.40625 -10.3125 21.625 -10.3125 C 22.832031 -10.3125 23.738281 -10.632812 24.34375 -11.28125 C 24.957031 -11.925781 25.265625 -12.941406 25.265625 -14.328125 L 25.265625 -24.640625 L 21.875 -24.640625 L 21.875 -34.9375 L 39.71875 -34.9375 L 39.71875 -10.3125 Z M 42.484375 -10.3125 "/></g></g></g><g fill="#f2eddb" fill-opacity="1"><g transform="translate(347.201901, 91.834761)"><g><path d="M 4.140625 -38.390625 L 4.140625 -48.890625 L 16.96875 -48.890625 L 16.96875 -38.390625 Z M 1.125 0 L 1.125 -10.3125 L 3.890625 -10.3125 L 3.890625 -24.640625 L 1.125 -24.640625 L 1.125 -34.9375 L 18.34375 -34.9375 L 18.34375 -10.3125 L 21.109375 -10.3125 L 21.109375 0 Z M 1.125 0 "/></g></g></g><g fill="#f2eddb" fill-opacity="1"><g transform="translate(371.582805, 91.834761)"><g><path d="M 13.515625 0.875 C 9.234375 0.875 6.015625 -0.710938 3.859375 -3.890625 C 1.703125 -7.078125 0.625 -11.601562 0.625 -17.46875 C 0.625 -23.332031 1.703125 -27.859375 3.859375 -31.046875 C 6.015625 -34.234375 9.234375 -35.828125 13.515625 -35.828125 C 15.648438 -35.828125 17.546875 -35.300781 19.203125 -34.25 C 20.859375 -33.195312 22.207031 -32.003906 23.25 -30.671875 L 23.25 -38.59375 L 19.546875 -38.59375 L 19.546875 -48.890625 L 37.703125 -48.890625 L 37.703125 -10.3125 L 40.46875 -10.3125 L 40.46875 0 L 23.25 0 L 23.25 -4.265625 C 22.207031 -2.929688 20.859375 -1.738281 19.203125 -0.6875 C 17.546875 0.351562 15.648438 0.875 13.515625 0.875 Z M 19.609375 -10.3125 C 20.828125 -10.3125 21.738281 -10.632812 22.34375 -11.28125 C 22.945312 -11.925781 23.25 -12.941406 23.25 -14.328125 L 23.25 -20.609375 C 23.25 -21.992188 22.945312 -23.007812 22.34375 -23.65625 C 21.738281 -24.3125 20.828125 -24.640625 19.609375 -24.640625 C 18.390625 -24.640625 17.476562 -24.3125 16.875 -23.65625 C 16.269531 -23.007812 15.96875 -21.992188 15.96875 -20.609375 L 15.96875 -14.328125 C 15.96875 -12.941406 16.269531 -11.925781 16.875 -11.28125 C 17.476562 -10.632812 18.390625 -10.3125 19.609375 -10.3125 Z M 19.609375 -10.3125 "/></g></g></g><path stroke-linecap="butt" transform="matrix(0.75, 0, 0, 0.75, 251.691056, 39.770903)" fill="none" stroke-linejoin="miter" d="M 34.182761 72.164842 C 23.625469 72.164842 15.484843 69.487759 9.755676 64.128383 C 4.031718 58.769008 1.167134 50.196091 1.167134 38.41484 C 1.167134 15.899214 12.115051 4.638796 34.021303 4.638796 C 39.323386 4.638796 44.255678 5.279422 48.807762 6.560672 C 53.365054 7.841922 56.760887 9.269005 58.995263 10.836714 L 58.995263 31.784631 L 38.885886 31.784631 L 38.885886 25.748173 C 38.885886 23.638798 38.411928 22.076298 37.453595 21.065881 C 36.50047 20.055464 35.078594 19.550256 33.182761 19.550256 C 31.286928 19.550256 29.859844 20.055464 28.906719 21.065881 C 27.948386 22.076298 27.474427 23.638798 27.474427 25.748173 L 27.474427 51.055466 C 27.474427 53.180466 27.948386 54.748175 28.906719 55.758591 C 29.859844 56.753383 31.286928 57.253383 33.182761 57.253383 C 35.078594 57.253383 36.50047 56.753383 37.453595 55.758591 C 38.411928 54.748175 38.885886 53.180466 38.885886 51.055466 L 38.885886 44.263799 L 58.995263 44.263799 L 58.995263 65.966925 C 56.703596 67.534634 53.307762 68.961717 48.807762 70.242967 C 44.307762 71.524217 39.432761 72.164842 34.182761 72.164842 Z M 120.651516 57.253383 L 120.651516 70.998176 L 97.703598 70.998176 L 97.703598 64.472133 C 93.677556 69.602342 88.646306 72.164842 82.604639 72.164842 C 77.969222 72.164842 74.490055 70.711717 72.172347 67.810675 C 69.854638 64.904425 68.69318 60.914842 68.69318 55.841925 L 68.69318 38.149215 L 65.010888 38.149215 L 65.010888 24.420048 L 87.964014 24.420048 L 87.964014 51.894008 C 87.964014 53.732549 88.365056 55.091925 89.172348 55.966925 C 89.990056 56.821091 91.208806 57.253383 92.833806 57.253383 C 94.453598 57.253383 95.66714 56.821091 96.474431 55.966925 C 97.29214 55.091925 97.703598 53.732549 97.703598 51.894008 L 97.703598 38.149215 L 93.161931 38.149215 L 93.161931 24.420048 L 116.969224 24.420048 L 116.969224 57.253383 Z M 130.526517 19.795047 L 130.526517 5.805463 L 147.625476 5.805463 L 147.625476 19.795047 Z M 126.5161 70.998176 L 126.5161 57.253383 L 130.198392 57.253383 L 130.198392 38.149215 L 126.5161 38.149215 L 126.5161 24.420048 L 149.469226 24.420048 L 149.469226 57.253383 L 153.151518 57.253383 L 153.151518 70.998176 Z M 175.531728 72.164842 C 169.833811 72.164842 165.542144 70.04505 162.667144 65.805467 C 159.786935 61.560675 158.349435 55.529425 158.349435 47.701299 C 158.349435 39.88359 159.786935 33.857548 162.667144 29.617965 C 165.542144 25.362756 169.833811 23.232548 175.531728 23.232548 C 178.385895 23.232548 180.906728 23.935673 183.104645 25.341923 C 185.312979 26.732548 187.12027 28.32109 188.521312 30.107548 L 188.521312 19.550256 L 183.573395 19.550256 L 183.573395 5.805463 L 207.792147 5.805463 L 207.792147 57.253383 L 211.474438 57.253383 L 211.474438 70.998176 L 188.521312 70.998176 L 188.521312 65.29505 C 187.12027 67.091925 185.312979 68.690884 183.104645 70.081509 C 180.906728 71.472134 178.385895 72.164842 175.531728 72.164842 Z M 183.656728 57.253383 C 185.27652 57.253383 186.490062 56.821091 187.297354 55.966925 C 188.115062 55.091925 188.521312 53.732549 188.521312 51.894008 L 188.521312 43.529424 C 188.521312 41.670049 188.115062 40.315882 187.297354 39.456507 C 186.490062 38.581507 185.27652 38.149215 183.656728 38.149215 C 182.031728 38.149215 180.812978 38.581507 179.99527 39.456507 C 179.187978 40.315882 178.786937 41.670049 178.786937 43.529424 L 178.786937 51.894008 C 178.786937 53.732549 179.187978 55.091925 179.99527 55.966925 C 180.812978 56.821091 182.031728 57.253383 183.656728 57.253383 Z M 183.656728 57.253383 " stroke="#f61500" stroke-width="1.937852" stroke-opacity="1" stroke-miterlimit="4"/><g fill="#f2eddb" fill-opacity="1"><g transform="translate(323.105817, 154.084757)"><g/></g></g><g fill="#f2eddb" fill-opacity="1"><g transform="translate(407.824463, 114.953616)"><g><path d="M 44.296875 -9.640625 L 46.640625 -9.640625 L 46.640625 0 L 23.625 0 L 23.625 -9.640625 L 27.140625 -9.640625 L 26.203125 -14.328125 L 18.21875 -14.328125 L 17.265625 -9.640625 L 20.796875 -9.640625 L 20.796875 0 L 0.703125 0 L 0.703125 -9.640625 L 3.0625 -9.640625 L 12.984375 -45.703125 L 34.375 -45.703125 Z M 19.5 -20.5625 L 24.90625 -20.5625 L 22.5 -32.25 L 21.90625 -32.25 Z M 19.5 -20.5625 "/></g></g></g><g fill="#f2eddb" fill-opacity="1"><g transform="translate(457.641719, 114.953616)"><g><path d="M 0.828125 3.40625 L 3.40625 3.40625 L 3.40625 -23.03125 L 0.828125 -23.03125 L 0.828125 -32.671875 L 16.921875 -32.671875 L 16.921875 -28.671875 C 17.898438 -29.921875 19.160156 -31.035156 20.703125 -32.015625 C 22.253906 -32.992188 24.03125 -33.484375 26.03125 -33.484375 C 30.019531 -33.484375 33.019531 -31.992188 35.03125 -29.015625 C 37.050781 -26.046875 38.0625 -21.816406 38.0625 -16.328125 C 38.0625 -10.847656 37.050781 -6.617188 35.03125 -3.640625 C 33.019531 -0.660156 30.019531 0.828125 26.03125 0.828125 C 24.03125 0.828125 22.253906 0.335938 20.703125 -0.640625 C 19.160156 -1.617188 17.898438 -2.738281 16.921875 -4 L 16.921875 3.40625 L 20.96875 3.40625 L 20.96875 13.046875 L 0.828125 13.046875 Z M 20.328125 -9.640625 C 21.460938 -9.640625 22.3125 -9.941406 22.875 -10.546875 C 23.445312 -11.148438 23.734375 -12.097656 23.734375 -13.390625 L 23.734375 -19.265625 C 23.734375 -20.554688 23.445312 -21.503906 22.875 -22.109375 C 22.3125 -22.722656 21.460938 -23.03125 20.328125 -23.03125 C 19.191406 -23.03125 18.335938 -22.722656 17.765625 -22.109375 C 17.203125 -21.503906 16.921875 -20.554688 16.921875 -19.265625 L 16.921875 -13.390625 C 16.921875 -12.097656 17.203125 -11.148438 17.765625 -10.546875 C 18.335938 -9.941406 19.191406 -9.640625 20.328125 -9.640625 Z M 20.328125 -9.640625 "/></g></g></g><g fill="#f2eddb" fill-opacity="1"><g transform="translate(498.764555, 114.953616)"><g><path d="M 0.828125 3.40625 L 3.40625 3.40625 L 3.40625 -23.03125 L 0.828125 -23.03125 L 0.828125 -32.671875 L 16.921875 -32.671875 L 16.921875 -28.671875 C 17.898438 -29.921875 19.160156 -31.035156 20.703125 -32.015625 C 22.253906 -32.992188 24.03125 -33.484375 26.03125 -33.484375 C 30.019531 -33.484375 33.019531 -31.992188 35.03125 -29.015625 C 37.050781 -26.046875 38.0625 -21.816406 38.0625 -16.328125 C 38.0625 -10.847656 37.050781 -6.617188 35.03125 -3.640625 C 33.019531 -0.660156 30.019531 0.828125 26.03125 0.828125 C 24.03125 0.828125 22.253906 0.335938 20.703125 -0.640625 C 19.160156 -1.617188 17.898438 -2.738281 16.921875 -4 L 16.921875 3.40625 L 20.96875 3.40625 L 20.96875 13.046875 L 0.828125 13.046875 Z M 20.328125 -9.640625 C 21.460938 -9.640625 22.3125 -9.941406 22.875 -10.546875 C 23.445312 -11.148438 23.734375 -12.097656 23.734375 -13.390625 L 23.734375 -19.265625 C 23.734375 -20.554688 23.445312 -21.503906 22.875 -22.109375 C 22.3125 -22.722656 21.460938 -23.03125 20.328125 -23.03125 C 19.191406 -23.03125 18.335938 -22.722656 17.765625 -22.109375 C 17.203125 -21.503906 16.921875 -20.554688 16.921875 -19.265625 L 16.921875 -13.390625 C 16.921875 -12.097656 17.203125 -11.148438 17.765625 -10.546875 C 18.335938 -9.941406 19.191406 -9.640625 20.328125 -9.640625 Z M 20.328125 -9.640625 "/></g></g></g><path stroke-linecap="butt" transform="matrix(0.75, 0, 0, 0.75, 337.074917, 67.312572)" fill="none" stroke-linejoin="miter" d="M 151.202203 52.14574 L 154.33762 52.14574 L 154.33762 64.999908 L 123.639702 64.999908 L 123.639702 52.14574 L 128.327202 52.14574 L 127.08241 45.89574 L 116.431368 45.89574 L 115.165743 52.14574 L 119.874076 52.14574 L 119.874076 64.999908 L 93.0772 64.999908 L 93.0772 52.14574 L 96.212617 52.14574 L 109.452201 4.046779 L 137.967827 4.046779 Z M 118.150118 37.572823 L 125.36366 37.572823 L 122.150118 21.98428 L 121.36366 21.98428 Z M 159.655329 69.551991 L 163.113662 69.551991 L 163.113662 34.281156 L 159.655329 34.281156 L 159.655329 21.447822 L 181.134497 21.447822 L 181.134497 26.76553 C 182.431372 25.098863 184.113664 23.60928 186.181372 22.312405 C 188.24908 20.999905 190.613664 20.338447 193.275122 20.338447 C 198.592831 20.338447 202.59804 22.32803 205.290748 26.307197 C 207.978248 30.275947 209.321998 35.911364 209.321998 43.213448 C 209.321998 50.536365 207.978248 56.17699 205.290748 60.140532 C 202.59804 64.109283 198.592831 66.088449 193.275122 66.088449 C 190.613664 66.088449 188.24908 65.437408 186.181372 64.140533 C 184.113664 62.838449 182.431372 61.348866 181.134497 59.661366 L 181.134497 69.551991 L 186.525122 69.551991 L 186.525122 82.385325 L 159.655329 82.385325 Z M 185.665747 52.14574 C 187.181372 52.14574 188.316789 51.744698 189.071997 50.942615 C 189.832414 50.124907 190.217831 48.859282 190.217831 47.135323 L 190.217831 39.312406 C 190.217831 37.578031 189.832414 36.312406 189.071997 35.510322 C 188.316789 34.692614 187.181372 34.281156 185.665747 34.281156 C 184.150122 34.281156 183.014705 34.692614 182.259497 35.510322 C 181.509497 36.312406 181.134497 37.578031 181.134497 39.312406 L 181.134497 47.135323 C 181.134497 48.859282 181.509497 50.124907 182.259497 50.942615 C 183.014705 51.744698 184.150122 52.14574 185.665747 52.14574 Z M 214.483457 69.551991 L 217.946999 69.551991 L 217.946999 34.281156 L 214.483457 34.281156 L 214.483457 21.447822 L 235.962625 21.447822 L 235.962625 26.76553 C 237.264708 25.098863 238.947 23.60928 241.0095 22.312405 C 243.077209 20.999905 245.441792 20.338447 248.108459 20.338447 C 253.426168 20.338447 257.426168 22.32803 260.118877 26.307197 C 262.811585 30.275947 264.155335 35.911364 264.155335 43.213448 C 264.155335 50.536365 262.811585 56.17699 260.118877 60.140532 C 257.426168 64.109283 253.426168 66.088449 248.108459 66.088449 C 245.441792 66.088449 243.077209 65.437408 241.0095 64.140533 C 238.947 62.838449 237.264708 61.348866 235.962625 59.661366 L 235.962625 69.551991 L 241.358459 69.551991 L 241.358459 82.385325 L 214.483457 82.385325 Z M 240.493875 52.14574 C 242.014709 52.14574 243.150125 51.744698 243.900126 50.942615 C 244.665751 50.124907 245.045959 48.859282 245.045959 47.135323 L 245.045959 39.312406 C 245.045959 37.578031 244.665751 36.312406 243.900126 35.510322 C 243.150125 34.692614 242.014709 34.281156 240.493875 34.281156 C 238.97825 34.281156 237.842833 34.692614 237.092833 35.510322 C 236.337625 36.312406 235.962625 37.578031 235.962625 39.312406 L 235.962625 47.135323 C 235.962625 48.859282 236.337625 50.124907 237.092833 50.942615 C 237.842833 51.744698 238.97825 52.14574 240.493875 52.14574 Z M 240.493875 52.14574 " stroke="#f61500" stroke-width="1.811751" stroke-opacity="1" stroke-miterlimit="4"/></svg>