<svg xmlns="http://www.w3.org/2000/svg" xmlns:xlink="http://www.w3.org/1999/xlink" width="876" zoomAndPan="magnify" viewBox="0 0 657 155.999997" height="208" preserveAspectRatio="xMidYMid meet" version="1.0"><defs><g/><clipPath id="5c4692787c"><path d="M 121.949219 15.601562 L 241.949219 15.601562 L 241.949219 85 L 121.949219 85 Z M 121.949219 15.601562 " clip-rule="nonzero"/></clipPath><clipPath id="cd8e4dca23"><path d="M 126 67 L 238 67 L 238 143.851562 L 126 143.851562 Z M 126 67 " clip-rule="nonzero"/></clipPath><clipPath id="d8297252f4"><path d="M 114.164062 39 L 249.914062 39 L 249.914062 98 L 114.164062 98 Z M 114.164062 39 " clip-rule="nonzero"/></clipPath></defs><g clip-path="url(#5c4692787c)"><path fill="#004aad" d="M 227.90625 30.796875 C 223.4375 27.5 218.601562 24.679688 213.53125 22.414062 C 208.566406 20.199219 203.347656 18.5 198.011719 17.367188 C 192.738281 16.246094 187.324219 15.671875 181.925781 15.65625 L 181.722656 15.65625 C 176.386719 15.65625 171.039062 16.203125 165.828125 17.28125 C 160.488281 18.386719 155.257812 20.058594 150.285156 22.246094 C 145.203125 24.484375 140.351562 27.28125 135.863281 30.554688 C 131.285156 33.902344 127.039062 37.78125 123.246094 42.089844 L 121.949219 43.390625 L 122.132812 45.355469 C 122.144531 45.46875 122.15625 45.585938 122.167969 45.699219 C 123.425781 49.339844 124.785156 52.925781 126.242188 56.441406 C 130.34375 66.335938 135.242188 75.800781 140.875 84.722656 C 138.316406 78.980469 136.175781 72.976562 134.507812 66.851562 C 132.714844 60.269531 131.425781 53.386719 130.667969 46.386719 C 133.765625 43.035156 137.175781 39.988281 140.8125 37.332031 C 144.8125 34.410156 149.132812 31.917969 153.664062 29.925781 C 158.101562 27.972656 162.765625 26.484375 167.53125 25.496094 C 172.183594 24.535156 176.957031 24.046875 181.71875 24.046875 L 181.902344 24.046875 C 186.726562 24.058594 191.558594 24.570312 196.269531 25.574219 C 201.027344 26.585938 205.683594 28.097656 210.109375 30.074219 C 214.628906 32.089844 218.9375 34.605469 222.921875 37.546875 C 226.675781 40.320312 230.179688 43.503906 233.34375 47.019531 C 232.496094 53.980469 231.117188 60.816406 229.242188 67.351562 C 227.777344 72.460938 225.984375 77.484375 223.894531 82.335938 C 228.894531 74.304688 233.304688 65.839844 237.082031 57.023438 C 238.867188 52.847656 240.523438 48.566406 242.03125 44.210938 L 240.554688 42.507812 C 236.761719 38.136719 232.507812 34.195312 227.90625 30.796875 " fill-opacity="1" fill-rule="nonzero"/></g><g clip-path="url(#cd8e4dca23)"><path fill="#004aad" d="M 217.09375 100.515625 C 207.992188 112.039062 199.207031 120.269531 193.4375 125.144531 C 189.878906 128.152344 187.007812 130.289062 185.152344 131.59375 C 183.660156 132.691406 182.386719 133.5625 181.394531 134.210938 C 181.351562 134.183594 181.308594 134.152344 181.265625 134.125 L 181.125 134.210938 L 179.441406 133.136719 C 179.273438 133.03125 175.15625 130.382812 168.929688 124.980469 C 163.226562 120.03125 154.542969 111.683594 145.589844 100.039062 C 138.339844 90.609375 131.976562 80.445312 126.589844 69.695312 C 128.453125 76.410156 130.851562 82.992188 133.71875 89.261719 C 138.703125 100.160156 145.179688 110.34375 152.96875 119.523438 C 159.902344 127.691406 166.625 133.550781 171.042969 137.023438 C 175.890625 140.839844 179.128906 142.722656 179.265625 142.800781 L 181.332031 143.996094 L 183.417969 142.828125 C 183.554688 142.75 186.8125 140.910156 191.71875 137.152344 C 196.183594 133.734375 202.984375 127.960938 210.03125 119.875 C 217.945312 110.792969 224.5625 100.695312 229.699219 89.855469 C 232.746094 83.421875 235.300781 76.65625 237.285156 69.742188 C 237.476562 69.078125 237.660156 68.414062 237.84375 67.742188 C 232.03125 79.417969 225.078125 90.40625 217.09375 100.515625 " fill-opacity="1" fill-rule="nonzero"/></g><g clip-path="url(#d8297252f4)"><path fill="#f53003" d="M 181.4375 78.230469 C 176.773438 78.195312 173.039062 74.503906 173.066406 69.933594 C 173.082031 65.378906 176.882812 61.679688 181.511719 61.714844 C 186.058594 61.742188 189.605469 65.371094 189.613281 70 C 189.613281 74.574219 185.949219 78.261719 181.4375 78.230469 Z M 247.425781 64.957031 C 245.890625 63.347656 244.214844 61.851562 242.472656 60.480469 C 221.710938 44.066406 198.101562 37.09375 171.761719 39.472656 C 152.667969 41.199219 135.511719 47.953125 120.503906 59.972656 C 119.03125 61.148438 117.609375 62.417969 116.339844 63.8125 C 114.265625 66.074219 114.417969 68.792969 116.839844 70.59375 C 123.941406 75.84375 131.101562 81.023438 138.292969 86.132812 C 139.707031 87.140625 141.367188 87.828125 142.976562 88.488281 C 144.101562 88.953125 145.355469 88.65625 145.582031 87.394531 C 145.71875 86.632812 145.203125 85.441406 144.582031 84.898438 C 138.683594 79.683594 132.871094 74.792969 127.578125 68.917969 C 137.210938 61.214844 147.742188 56.128906 159.210938 53.183594 C 157.796875 56.484375 155.976562 59.566406 155.179688 62.898438 C 154.375 66.3125 154.054688 70.027344 154.476562 73.480469 C 154.902344 76.875 156.070312 80.386719 157.769531 83.339844 C 159.507812 86.371094 161.996094 89.15625 164.6875 91.398438 C 174.015625 99.195312 188.308594 99.109375 198.078125 91.5 C 203.222656 87.488281 206.574219 82.292969 207.964844 75.933594 C 209.742188 67.800781 208.015625 60.308594 202.878906 53.074219 C 215.667969 56.507812 226.609375 62.171875 236.625 70.425781 C 237.996094 71.550781 216.570312 85.507812 217.671875 87.539062 C 218.695312 89.417969 220.347656 88.105469 221.574219 87.523438 C 230.546875 83.207031 238.867188 77.824219 246.839844 71.898438 C 249.609375 69.847656 249.820312 67.472656 247.425781 64.957031 " fill-opacity="1" fill-rule="nonzero"/></g><g fill="#f2eddb" fill-opacity="1"><g transform="translate(252.89545, 79.911107)"><g><path d="M 25.640625 0.875 C 17.722656 0.875 11.613281 -1.132812 7.3125 -5.15625 C 3.019531 -9.175781 0.875 -15.609375 0.875 -24.453125 C 0.875 -41.328125 9.085938 -49.765625 25.515625 -49.765625 C 29.492188 -49.765625 33.191406 -49.28125 36.609375 -48.3125 C 40.023438 -47.351562 42.566406 -46.289062 44.234375 -45.125 L 44.234375 -29.40625 L 29.15625 -29.40625 L 29.15625 -33.9375 C 29.15625 -35.53125 28.796875 -36.703125 28.078125 -37.453125 C 27.367188 -38.210938 26.304688 -38.59375 24.890625 -38.59375 C 23.460938 -38.59375 22.390625 -38.210938 21.671875 -37.453125 C 20.960938 -36.703125 20.609375 -35.53125 20.609375 -33.9375 L 20.609375 -14.953125 C 20.609375 -13.359375 20.960938 -12.1875 21.671875 -11.4375 C 22.390625 -10.6875 23.460938 -10.3125 24.890625 -10.3125 C 26.304688 -10.3125 27.367188 -10.6875 28.078125 -11.4375 C 28.796875 -12.1875 29.15625 -13.359375 29.15625 -14.953125 L 29.15625 -20.046875 L 44.234375 -20.046875 L 44.234375 -3.765625 C 42.523438 -2.597656 39.984375 -1.53125 36.609375 -0.5625 C 33.234375 0.394531 29.578125 0.875 25.640625 0.875 Z M 25.640625 0.875 "/></g></g></g><g fill="#f2eddb" fill-opacity="1"><g transform="translate(300.898337, 79.911107)"><g><path d="M 42.484375 -10.3125 L 42.484375 0 L 25.265625 0 L 25.265625 -4.90625 C 22.242188 -1.050781 18.472656 0.875 13.953125 0.875 C 10.472656 0.875 7.863281 -0.210938 6.125 -2.390625 C 4.382812 -4.566406 3.515625 -7.5625 3.515625 -11.375 L 3.515625 -24.640625 L 0.75 -24.640625 L 0.75 -34.9375 L 17.96875 -34.9375 L 17.96875 -14.328125 C 17.96875 -12.941406 18.269531 -11.925781 18.875 -11.28125 C 19.488281 -10.632812 20.40625 -10.3125 21.625 -10.3125 C 22.832031 -10.3125 23.738281 -10.632812 24.34375 -11.28125 C 24.957031 -11.925781 25.265625 -12.941406 25.265625 -14.328125 L 25.265625 -24.640625 L 21.875 -24.640625 L 21.875 -34.9375 L 39.71875 -34.9375 L 39.71875 -10.3125 Z M 42.484375 -10.3125 "/></g></g></g><g fill="#f2eddb" fill-opacity="1"><g transform="translate(346.639338, 79.911107)"><g><path d="M 4.140625 -38.390625 L 4.140625 -48.890625 L 16.96875 -48.890625 L 16.96875 -38.390625 Z M 1.125 0 L 1.125 -10.3125 L 3.890625 -10.3125 L 3.890625 -24.640625 L 1.125 -24.640625 L 1.125 -34.9375 L 18.34375 -34.9375 L 18.34375 -10.3125 L 21.109375 -10.3125 L 21.109375 0 Z M 1.125 0 "/></g></g></g><g fill="#f2eddb" fill-opacity="1"><g transform="translate(371.018168, 79.911107)"><g><path d="M 13.515625 0.875 C 9.234375 0.875 6.015625 -0.710938 3.859375 -3.890625 C 1.703125 -7.078125 0.625 -11.601562 0.625 -17.46875 C 0.625 -23.332031 1.703125 -27.859375 3.859375 -31.046875 C 6.015625 -34.234375 9.234375 -35.828125 13.515625 -35.828125 C 15.648438 -35.828125 17.546875 -35.300781 19.203125 -34.25 C 20.859375 -33.195312 22.207031 -32.003906 23.25 -30.671875 L 23.25 -38.59375 L 19.546875 -38.59375 L 19.546875 -48.890625 L 37.703125 -48.890625 L 37.703125 -10.3125 L 40.46875 -10.3125 L 40.46875 0 L 23.25 0 L 23.25 -4.265625 C 22.207031 -2.929688 20.859375 -1.738281 19.203125 -0.6875 C 17.546875 0.351562 15.648438 0.875 13.515625 0.875 Z M 19.609375 -10.3125 C 20.828125 -10.3125 21.738281 -10.632812 22.34375 -11.28125 C 22.945312 -11.925781 23.25 -12.941406 23.25 -14.328125 L 23.25 -20.609375 C 23.25 -21.992188 22.945312 -23.007812 22.34375 -23.65625 C 21.738281 -24.3125 20.828125 -24.640625 19.609375 -24.640625 C 18.390625 -24.640625 17.476562 -24.3125 16.875 -23.65625 C 16.269531 -23.007812 15.96875 -21.992188 15.96875 -20.609375 L 15.96875 -14.328125 C 15.96875 -12.941406 16.269531 -11.925781 16.875 -11.28125 C 17.476562 -10.632812 18.390625 -10.3125 19.609375 -10.3125 Z M 19.609375 -10.3125 "/></g></g></g><path stroke-linecap="butt" transform="matrix(0.830467, 0, 0, 0.830467, 251.136934, 28.777841)" fill="none" stroke-linejoin="miter" d="M 30.869994 64.054119 C 21.335634 64.054119 13.983782 61.631724 8.814437 56.791637 C 3.640389 51.95155 1.053365 44.213996 1.053365 33.569567 C 1.053365 13.235558 10.940501 3.070905 30.72418 3.070905 C 35.512526 3.070905 39.966912 3.649457 44.077928 4.806563 C 48.193648 5.963668 51.260448 7.252476 53.278327 8.668284 L 53.278327 27.586486 L 35.117417 27.586486 L 35.117417 22.134921 C 35.117417 20.225226 34.689382 18.814122 33.823905 17.906312 C 32.963132 16.993798 31.679027 16.537541 29.966887 16.537541 C 28.254748 16.537541 26.965939 16.993798 26.105166 17.906312 C 25.239689 18.814122 24.811654 20.225226 24.811654 22.134921 L 24.811654 44.985399 C 24.811654 46.909204 25.239689 48.325012 26.105166 49.237526 C 26.965939 50.135929 28.254748 50.587482 29.966887 50.587482 C 31.679027 50.587482 32.963132 50.135929 33.823905 49.237526 C 34.689382 48.325012 35.117417 46.909204 35.117417 44.985399 L 35.117417 38.856504 L 53.278327 38.856504 L 53.278327 58.456739 C 51.208707 59.872547 48.141908 61.156652 44.077928 62.318461 C 40.013948 63.475566 35.611304 64.054119 30.869994 64.054119 Z M 108.95579 50.587482 L 108.95579 63.000495 L 88.231374 63.000495 L 88.231374 57.106783 C 84.59543 61.739908 80.051675 64.054119 74.595405 64.054119 C 70.40913 64.054119 67.267072 62.741792 65.173934 60.117139 C 63.080796 57.492485 62.031876 53.89417 62.031876 49.312785 L 62.031876 33.32968 L 58.706374 33.32968 L 58.706374 20.935482 L 79.435492 20.935482 L 79.435492 45.747395 C 79.435492 47.407795 79.797676 48.635455 80.526746 49.42097 C 81.265224 50.197077 82.365885 50.587482 83.833433 50.587482 C 85.296278 50.587482 86.392235 50.197077 87.121306 49.42097 C 87.859784 48.635455 88.231374 47.407795 88.231374 45.747395 L 88.231374 33.32968 L 84.129765 33.32968 L 84.129765 20.935482 L 105.630288 20.935482 L 105.630288 50.587482 Z M 117.869264 16.758614 L 117.869264 4.124529 L 133.311446 4.124529 L 133.311446 16.758614 Z M 114.24743 63.000495 L 114.24743 50.587482 L 117.572932 50.587482 L 117.572932 33.32968 L 114.24743 33.32968 L 114.24743 20.935482 L 134.976549 20.935482 L 134.976549 50.587482 L 138.302051 50.587482 L 138.302051 63.000495 Z M 158.513765 64.054119 C 153.363235 64.054119 149.492106 62.139721 146.890971 58.306222 C 144.294539 54.477426 142.996323 49.025861 142.996323 41.956229 C 142.996323 34.900709 144.294539 29.458551 146.890971 25.625051 C 149.492106 21.782145 153.363235 19.863043 158.513765 19.863043 C 161.086678 19.863043 163.363259 20.49804 165.348212 21.768034 C 167.342572 23.023916 168.974749 24.458539 170.244743 26.071901 L 170.244743 16.537541 L 165.771543 16.537541 L 165.771543 4.124529 L 187.643656 4.124529 L 187.643656 50.587482 L 190.969158 50.587482 L 190.969158 63.000495 L 170.244743 63.000495 L 170.244743 57.845261 C 168.974749 59.472734 167.342572 60.912061 165.348212 62.167943 C 163.363259 63.423826 161.086678 64.054119 158.513765 64.054119 Z M 165.846802 50.587482 C 167.31435 50.587482 168.410308 50.197077 169.134675 49.42097 C 169.873152 48.635455 170.244743 47.407795 170.244743 45.747395 L 170.244743 38.188581 C 170.244743 36.514071 169.873152 35.291114 169.134675 34.515007 C 168.410308 33.724789 167.31435 33.32968 165.846802 33.32968 C 164.379254 33.32968 163.278593 33.724789 162.540115 34.515007 C 161.811044 35.291114 161.448861 36.514071 161.448861 38.188581 L 161.448861 45.747395 C 161.448861 47.407795 161.811044 48.635455 162.540115 49.42097 C 163.278593 50.197077 164.379254 50.587482 165.846802 50.587482 Z M 165.846802 50.587482 " stroke="#f53003" stroke-width="1.750086" stroke-opacity="1" stroke-miterlimit="4"/><g fill="#f2eddb" fill-opacity="1"><g transform="translate(322.563824, 142.196112)"><g/></g></g><g fill="#f2eddb" fill-opacity="1"><g transform="translate(407.288565, 103.960551)"><g><path d="M 44.296875 -9.640625 L 46.640625 -9.640625 L 46.640625 0 L 23.625 0 L 23.625 -9.640625 L 27.140625 -9.640625 L 26.203125 -14.328125 L 18.21875 -14.328125 L 17.265625 -9.640625 L 20.796875 -9.640625 L 20.796875 0 L 0.703125 0 L 0.703125 -9.640625 L 3.0625 -9.640625 L 12.984375 -45.703125 L 34.375 -45.703125 Z M 19.5 -20.5625 L 24.90625 -20.5625 L 22.5 -32.25 L 21.90625 -32.25 Z M 19.5 -20.5625 "/></g></g></g><g fill="#f2eddb" fill-opacity="1"><g transform="translate(457.105821, 103.960551)"><g><path d="M 0.828125 3.40625 L 3.40625 3.40625 L 3.40625 -23.03125 L 0.828125 -23.03125 L 0.828125 -32.671875 L 16.921875 -32.671875 L 16.921875 -28.671875 C 17.898438 -29.921875 19.160156 -31.035156 20.703125 -32.015625 C 22.253906 -32.992188 24.03125 -33.484375 26.03125 -33.484375 C 30.019531 -33.484375 33.019531 -31.992188 35.03125 -29.015625 C 37.050781 -26.046875 38.0625 -21.816406 38.0625 -16.328125 C 38.0625 -10.847656 37.050781 -6.617188 35.03125 -3.640625 C 33.019531 -0.660156 30.019531 0.828125 26.03125 0.828125 C 24.03125 0.828125 22.253906 0.335938 20.703125 -0.640625 C 19.160156 -1.617188 17.898438 -2.738281 16.921875 -4 L 16.921875 3.40625 L 20.96875 3.40625 L 20.96875 13.046875 L 0.828125 13.046875 Z M 20.328125 -9.640625 C 21.460938 -9.640625 22.3125 -9.941406 22.875 -10.546875 C 23.445312 -11.148438 23.734375 -12.097656 23.734375 -13.390625 L 23.734375 -19.265625 C 23.734375 -20.554688 23.445312 -21.503906 22.875 -22.109375 C 22.3125 -22.722656 21.460938 -23.03125 20.328125 -23.03125 C 19.191406 -23.03125 18.335938 -22.722656 17.765625 -22.109375 C 17.203125 -21.503906 16.921875 -20.554688 16.921875 -19.265625 L 16.921875 -13.390625 C 16.921875 -12.097656 17.203125 -11.148438 17.765625 -10.546875 C 18.335938 -9.941406 19.191406 -9.640625 20.328125 -9.640625 Z M 20.328125 -9.640625 "/></g></g></g><g fill="#f2eddb" fill-opacity="1"><g transform="translate(498.228657, 103.960551)"><g><path d="M 0.828125 3.40625 L 3.40625 3.40625 L 3.40625 -23.03125 L 0.828125 -23.03125 L 0.828125 -32.671875 L 16.921875 -32.671875 L 16.921875 -28.671875 C 17.898438 -29.921875 19.160156 -31.035156 20.703125 -32.015625 C 22.253906 -32.992188 24.03125 -33.484375 26.03125 -33.484375 C 30.019531 -33.484375 33.019531 -31.992188 35.03125 -29.015625 C 37.050781 -26.046875 38.0625 -21.816406 38.0625 -16.328125 C 38.0625 -10.847656 37.050781 -6.617188 35.03125 -3.640625 C 33.019531 -0.660156 30.019531 0.828125 26.03125 0.828125 C 24.03125 0.828125 22.253906 0.335938 20.703125 -0.640625 C 19.160156 -1.617188 17.898438 -2.738281 16.921875 -4 L 16.921875 3.40625 L 20.96875 3.40625 L 20.96875 13.046875 L 0.828125 13.046875 Z M 20.328125 -9.640625 C 21.460938 -9.640625 22.3125 -9.941406 22.875 -10.546875 C 23.445312 -11.148438 23.734375 -12.097656 23.734375 -13.390625 L 23.734375 -19.265625 C 23.734375 -20.554688 23.445312 -21.503906 22.875 -22.109375 C 22.3125 -22.722656 21.460938 -23.03125 20.328125 -23.03125 C 19.191406 -23.03125 18.335938 -22.722656 17.765625 -22.109375 C 17.203125 -21.503906 16.921875 -20.554688 16.921875 -19.265625 L 16.921875 -13.390625 C 16.921875 -12.097656 17.203125 -11.148438 17.765625 -10.546875 C 18.335938 -9.941406 19.191406 -9.640625 20.328125 -9.640625 Z M 20.328125 -9.640625 "/></g></g></g><path stroke-linecap="butt" transform="matrix(0.75, 0, 0, 0.75, 336.539019, 56.319505)" fill="none" stroke-linejoin="miter" d="M 151.203193 52.146913 L 154.33861 52.146913 L 154.33861 65.001081 L 123.640691 65.001081 L 123.640691 52.146913 L 128.328191 52.146913 L 127.0834 45.891705 L 116.432357 45.891705 L 115.166732 52.146913 L 119.875066 52.146913 L 119.875066 65.001081 L 93.078189 65.001081 L 93.078189 52.146913 L 96.213606 52.146913 L 109.447982 4.047952 L 137.968817 4.047952 Z M 118.151107 37.573996 L 125.364649 37.573996 L 122.151108 21.985453 L 121.364649 21.985453 Z M 159.656318 69.553164 L 163.114652 69.553164 L 163.114652 34.282329 L 159.656318 34.282329 L 159.656318 21.448995 L 181.130278 21.448995 L 181.130278 26.766703 C 182.432361 25.094828 184.114653 23.610453 186.182362 22.30837 C 188.244862 20.99587 190.614653 20.33962 193.276112 20.33962 C 198.593821 20.33962 202.599029 22.329203 205.286529 26.30837 C 207.979238 30.271912 209.322988 35.907329 209.322988 43.214621 C 209.322988 50.53233 207.979238 56.178163 205.286529 60.141705 C 202.599029 64.105247 198.593821 66.089622 193.276112 66.089622 C 190.614653 66.089622 188.244862 65.438581 186.182362 64.141706 C 184.114653 62.839622 182.432361 61.34483 181.130278 59.662539 L 181.130278 69.553164 L 186.526112 69.553164 L 186.526112 82.386498 L 159.656318 82.386498 Z M 185.666736 52.146913 C 187.182362 52.146913 188.317778 51.745872 189.067778 50.943788 C 189.833403 50.12608 190.21882 48.855246 190.21882 47.136496 L 190.21882 39.313579 C 190.21882 37.579204 189.833403 36.313579 189.067778 35.506287 C 188.317778 34.693787 187.182362 34.282329 185.666736 34.282329 C 184.145903 34.282329 183.010486 34.693787 182.260486 35.506287 C 181.510486 36.313579 181.130278 37.579204 181.130278 39.313579 L 181.130278 47.136496 C 181.130278 48.855246 181.510486 50.12608 182.260486 50.943788 C 183.010486 51.745872 184.145903 52.146913 185.666736 52.146913 Z M 214.484447 69.553164 L 217.947988 69.553164 L 217.947988 34.282329 L 214.484447 34.282329 L 214.484447 21.448995 L 235.963615 21.448995 L 235.963615 26.766703 C 237.265698 25.094828 238.94799 23.610453 241.01049 22.30837 C 243.078198 20.99587 245.442782 20.33962 248.109449 20.33962 C 253.427157 20.33962 257.427158 22.329203 260.119866 26.30837 C 262.807366 30.271912 264.156325 35.907329 264.156325 43.214621 C 264.156325 50.53233 262.807366 56.178163 260.119866 60.141705 C 257.427158 64.105247 253.427157 66.089622 248.109449 66.089622 C 245.442782 66.089622 243.078198 65.438581 241.01049 64.141706 C 238.94799 62.839622 237.265698 61.34483 235.963615 59.662539 L 235.963615 69.553164 L 241.35424 69.553164 L 241.35424 82.386498 L 214.484447 82.386498 Z M 240.494865 52.146913 C 242.01049 52.146913 243.145907 51.745872 243.901115 50.943788 C 244.66674 50.12608 245.046948 48.855246 245.046948 47.136496 L 245.046948 39.313579 C 245.046948 37.579204 244.66674 36.313579 243.901115 35.506287 C 243.145907 34.693787 242.01049 34.282329 240.494865 34.282329 C 238.97924 34.282329 237.843823 34.693787 237.088615 35.506287 C 236.338615 36.313579 235.963615 37.579204 235.963615 39.313579 L 235.963615 47.136496 C 235.963615 48.855246 236.338615 50.12608 237.088615 50.943788 C 237.843823 51.745872 238.97924 52.146913 240.494865 52.146913 Z M 240.494865 52.146913 " stroke="#f53003" stroke-width="1.811751" stroke-opacity="1" stroke-miterlimit="4"/></svg>